<svg width="70" height="70" viewBox="0 0 70 70" fill="none" xmlns="http://www.w3.org/2000/svg">
<circle cx="35" cy="35" r="31" stroke="#6DC0B4" stroke-width="8"/>
<path d="M36.5682 47.3182C34.7955 47.3182 33.2235 47.0152 31.8523 46.4091C30.4886 45.7955 29.4129 44.9508 28.625 43.875C27.8371 42.7992 27.4356 41.5606 27.4205 40.1591H33.0795C33.1023 40.6667 33.2652 41.1174 33.5682 41.5114C33.8712 41.8977 34.2841 42.2008 34.8068 42.4205C35.3295 42.6402 35.9242 42.75 36.5909 42.75C37.2576 42.75 37.8447 42.6326 38.3523 42.3977C38.8674 42.1553 39.2689 41.8258 39.5568 41.4091C39.8447 40.9848 39.9848 40.5 39.9773 39.9545C39.9848 39.4091 39.8295 38.9242 39.5114 38.5C39.1932 38.0758 38.7424 37.7462 38.1591 37.5114C37.5833 37.2765 36.9015 37.1591 36.1136 37.1591H33.8523V33.1591H36.1136C36.803 33.1591 37.4091 33.0455 37.9318 32.8182C38.4621 32.5909 38.875 32.2727 39.1705 31.8636C39.4659 31.447 39.6098 30.9697 39.6023 30.4318C39.6098 29.9091 39.4848 29.4508 39.2273 29.0568C38.9773 28.6553 38.625 28.3447 38.1705 28.125C37.7235 27.9053 37.2045 27.7955 36.6136 27.7955C35.9924 27.7955 35.428 27.9053 34.9205 28.125C34.4205 28.3447 34.0227 28.6553 33.7273 29.0568C33.4318 29.4583 33.2765 29.9242 33.2614 30.4545H27.8864C27.9015 29.0682 28.2879 27.8485 29.0455 26.7955C29.803 25.7348 30.8333 24.9053 32.1364 24.3068C33.447 23.7083 34.9394 23.4091 36.6136 23.4091C38.2803 23.4091 39.7462 23.7008 41.0114 24.2841C42.2765 24.8674 43.2614 25.6629 43.9659 26.6705C44.6705 27.6705 45.0227 28.803 45.0227 30.0682C45.0303 31.3788 44.6023 32.4583 43.7386 33.3068C42.8826 34.1553 41.7803 34.678 40.4318 34.875V35.0568C42.2348 35.2689 43.5947 35.8523 44.5114 36.8068C45.4356 37.7614 45.8939 38.9545 45.8864 40.3864C45.8864 41.7348 45.4886 42.9318 44.6932 43.9773C43.9053 45.0152 42.8068 45.8333 41.3977 46.4318C39.9962 47.0227 38.3864 47.3182 36.5682 47.3182Z" fill="#495867"/>
</svg>
