<svg width="70" height="70" viewBox="0 0 70 70" fill="none" xmlns="http://www.w3.org/2000/svg">
<circle cx="35" cy="35" r="31" stroke="#6DC0B4" stroke-width="8"/>
<path d="M27.7159 47V42.9545L36.2045 35.5227C36.8409 34.947 37.3826 34.4205 37.8295 33.9432C38.2765 33.4583 38.6174 32.9735 38.8523 32.4886C39.0871 31.9962 39.2045 31.4621 39.2045 30.8864C39.2045 30.2424 39.0644 29.6932 38.7841 29.2386C38.5038 28.7765 38.1174 28.4205 37.625 28.1705C37.1326 27.9205 36.5682 27.7955 35.9318 27.7955C35.2879 27.7955 34.7235 27.928 34.2386 28.1932C33.7538 28.4508 33.375 28.8258 33.1023 29.3182C32.8371 29.8106 32.7045 30.4091 32.7045 31.1136H27.375C27.375 29.5303 27.7311 28.1629 28.4432 27.0114C29.1553 25.8598 30.1553 24.9735 31.4432 24.3523C32.7386 23.7235 34.2424 23.4091 35.9545 23.4091C37.7197 23.4091 39.2538 23.7045 40.5568 24.2955C41.8598 24.8864 42.8674 25.7121 43.5795 26.7727C44.2992 27.8258 44.6591 29.0492 44.6591 30.4432C44.6591 31.3295 44.4811 32.2083 44.125 33.0795C43.7689 33.9508 43.1288 34.9129 42.2045 35.9659C41.2879 37.0189 39.9848 38.2803 38.2955 39.75L35.5114 42.3182V42.4659H44.9432V47H27.7159Z" fill="#495867"/>
</svg>
